<mxfile host="app.diagrams.net" agent="Mozilla/5.0 (X11; Ubuntu; Linux x86_64; rv:135.0) Gecko/20100101 Firefox/135.0" version="26.0.13">
  <diagram id="C5RBs43oDa-KdzZeNtuy" name="Page-1">
    <mxGraphModel dx="1609" dy="929" grid="1" gridSize="10" guides="1" tooltips="1" connect="1" arrows="1" fold="1" page="1" pageScale="1" pageWidth="1169" pageHeight="827" math="1" shadow="0">
      <root>
        <mxCell id="WIyWlLk6GJQsqaUBKTNV-0" />
        <mxCell id="WIyWlLk6GJQsqaUBKTNV-1" parent="WIyWlLk6GJQsqaUBKTNV-0" />
        <mxCell id="qE2XB7oEgwuM55grn9ra-30" style="edgeStyle=orthogonalEdgeStyle;rounded=0;orthogonalLoop=1;jettySize=auto;html=1;entryX=0;entryY=0.5;entryDx=0;entryDy=0;" edge="1" parent="WIyWlLk6GJQsqaUBKTNV-1" source="qE2XB7oEgwuM55grn9ra-14" target="qE2XB7oEgwuM55grn9ra-29">
          <mxGeometry relative="1" as="geometry" />
        </mxCell>
        <mxCell id="qE2XB7oEgwuM55grn9ra-14" value="" style="rounded=0;whiteSpace=wrap;html=1;dashed=1;fillColor=none;movable=0;resizable=0;rotatable=0;deletable=0;editable=0;locked=1;connectable=0;" vertex="1" parent="WIyWlLk6GJQsqaUBKTNV-1">
          <mxGeometry x="490" y="70" width="280" height="380" as="geometry" />
        </mxCell>
        <mxCell id="qE2XB7oEgwuM55grn9ra-19" style="edgeStyle=orthogonalEdgeStyle;rounded=0;orthogonalLoop=1;jettySize=auto;html=1;exitX=0;exitY=0.5;exitDx=0;exitDy=0;entryX=0;entryY=0.5;entryDx=0;entryDy=0;" edge="1" parent="WIyWlLk6GJQsqaUBKTNV-1" source="qE2XB7oEgwuM55grn9ra-14" target="qE2XB7oEgwuM55grn9ra-9">
          <mxGeometry relative="1" as="geometry">
            <Array as="points">
              <mxPoint x="500" y="260" />
              <mxPoint x="500" y="120" />
            </Array>
          </mxGeometry>
        </mxCell>
        <mxCell id="qE2XB7oEgwuM55grn9ra-21" style="edgeStyle=orthogonalEdgeStyle;rounded=0;orthogonalLoop=1;jettySize=auto;html=1;exitX=0;exitY=0.5;exitDx=0;exitDy=0;entryX=0;entryY=0.5;entryDx=0;entryDy=0;" edge="1" parent="WIyWlLk6GJQsqaUBKTNV-1" source="qE2XB7oEgwuM55grn9ra-14" target="qE2XB7oEgwuM55grn9ra-10">
          <mxGeometry relative="1" as="geometry">
            <Array as="points">
              <mxPoint x="500" y="260" />
              <mxPoint x="500" y="210" />
            </Array>
          </mxGeometry>
        </mxCell>
        <mxCell id="qE2XB7oEgwuM55grn9ra-22" style="edgeStyle=orthogonalEdgeStyle;rounded=0;orthogonalLoop=1;jettySize=auto;html=1;exitX=0;exitY=0.5;exitDx=0;exitDy=0;entryX=0;entryY=0.5;entryDx=0;entryDy=0;" edge="1" parent="WIyWlLk6GJQsqaUBKTNV-1" source="qE2XB7oEgwuM55grn9ra-14" target="qE2XB7oEgwuM55grn9ra-11">
          <mxGeometry relative="1" as="geometry">
            <Array as="points">
              <mxPoint x="500" y="260" />
              <mxPoint x="500" y="400" />
            </Array>
          </mxGeometry>
        </mxCell>
        <mxCell id="qE2XB7oEgwuM55grn9ra-2" style="edgeStyle=orthogonalEdgeStyle;rounded=0;orthogonalLoop=1;jettySize=auto;html=1;exitX=1;exitY=0.5;exitDx=0;exitDy=0;entryX=0;entryY=0.5;entryDx=0;entryDy=0;" edge="1" parent="WIyWlLk6GJQsqaUBKTNV-1" source="qE2XB7oEgwuM55grn9ra-0" target="qE2XB7oEgwuM55grn9ra-1">
          <mxGeometry relative="1" as="geometry" />
        </mxCell>
        <mxCell id="qE2XB7oEgwuM55grn9ra-0" value="Start" style="ellipse;whiteSpace=wrap;html=1;" vertex="1" parent="WIyWlLk6GJQsqaUBKTNV-1">
          <mxGeometry x="20" y="220" width="120" height="80" as="geometry" />
        </mxCell>
        <mxCell id="qE2XB7oEgwuM55grn9ra-4" style="edgeStyle=orthogonalEdgeStyle;rounded=0;orthogonalLoop=1;jettySize=auto;html=1;exitX=1;exitY=0.5;exitDx=0;exitDy=0;entryX=0;entryY=0.5;entryDx=0;entryDy=0;" edge="1" parent="WIyWlLk6GJQsqaUBKTNV-1" source="qE2XB7oEgwuM55grn9ra-1" target="qE2XB7oEgwuM55grn9ra-3">
          <mxGeometry relative="1" as="geometry" />
        </mxCell>
        <mxCell id="qE2XB7oEgwuM55grn9ra-1" value="Define ROI, transducer and mediums " style="shape=parallelogram;perimeter=parallelogramPerimeter;whiteSpace=wrap;html=1;fixedSize=1;" vertex="1" parent="WIyWlLk6GJQsqaUBKTNV-1">
          <mxGeometry x="160" y="230" width="120" height="60" as="geometry" />
        </mxCell>
        <mxCell id="qE2XB7oEgwuM55grn9ra-20" style="edgeStyle=orthogonalEdgeStyle;rounded=0;orthogonalLoop=1;jettySize=auto;html=1;exitX=1;exitY=0.5;exitDx=0;exitDy=0;entryX=0;entryY=0.5;entryDx=0;entryDy=0;" edge="1" parent="WIyWlLk6GJQsqaUBKTNV-1" source="qE2XB7oEgwuM55grn9ra-3" target="qE2XB7oEgwuM55grn9ra-14">
          <mxGeometry relative="1" as="geometry" />
        </mxCell>
        <mxCell id="qE2XB7oEgwuM55grn9ra-3" value="Create pairs between emitters and ROI points" style="rounded=1;whiteSpace=wrap;html=1;absoluteArcSize=1;arcSize=14;strokeWidth=2;" vertex="1" parent="WIyWlLk6GJQsqaUBKTNV-1">
          <mxGeometry x="300" y="230" width="140" height="60" as="geometry" />
        </mxCell>
        <mxCell id="qE2XB7oEgwuM55grn9ra-27" style="edgeStyle=orthogonalEdgeStyle;rounded=0;orthogonalLoop=1;jettySize=auto;html=1;exitX=1;exitY=0.5;exitDx=0;exitDy=0;entryX=1;entryY=0.5;entryDx=0;entryDy=0;" edge="1" parent="WIyWlLk6GJQsqaUBKTNV-1" source="qE2XB7oEgwuM55grn9ra-9" target="qE2XB7oEgwuM55grn9ra-14">
          <mxGeometry relative="1" as="geometry" />
        </mxCell>
        <mxCell id="qE2XB7oEgwuM55grn9ra-9" value="&lt;div&gt;Run algorithm for&lt;/div&gt;(1st emitter; 1st focus)" style="rounded=1;whiteSpace=wrap;html=1;absoluteArcSize=1;arcSize=14;strokeWidth=2;" vertex="1" parent="WIyWlLk6GJQsqaUBKTNV-1">
          <mxGeometry x="550" y="90" width="180" height="60" as="geometry" />
        </mxCell>
        <mxCell id="qE2XB7oEgwuM55grn9ra-25" style="edgeStyle=orthogonalEdgeStyle;rounded=0;orthogonalLoop=1;jettySize=auto;html=1;exitX=1;exitY=0.5;exitDx=0;exitDy=0;entryX=1;entryY=0.5;entryDx=0;entryDy=0;" edge="1" parent="WIyWlLk6GJQsqaUBKTNV-1" source="qE2XB7oEgwuM55grn9ra-10" target="qE2XB7oEgwuM55grn9ra-14">
          <mxGeometry relative="1" as="geometry" />
        </mxCell>
        <mxCell id="qE2XB7oEgwuM55grn9ra-10" value="&lt;div&gt;Run algorithm for&lt;/div&gt;(2nd emitter; 1st focus)" style="rounded=1;whiteSpace=wrap;html=1;absoluteArcSize=1;arcSize=14;strokeWidth=2;" vertex="1" parent="WIyWlLk6GJQsqaUBKTNV-1">
          <mxGeometry x="550" y="180" width="180" height="60" as="geometry" />
        </mxCell>
        <mxCell id="qE2XB7oEgwuM55grn9ra-24" style="edgeStyle=orthogonalEdgeStyle;rounded=0;orthogonalLoop=1;jettySize=auto;html=1;exitX=1;exitY=0.5;exitDx=0;exitDy=0;entryX=1;entryY=0.5;entryDx=0;entryDy=0;" edge="1" parent="WIyWlLk6GJQsqaUBKTNV-1" source="qE2XB7oEgwuM55grn9ra-11" target="qE2XB7oEgwuM55grn9ra-14">
          <mxGeometry relative="1" as="geometry" />
        </mxCell>
        <mxCell id="qE2XB7oEgwuM55grn9ra-11" value="&lt;div&gt;Run algorithm for&lt;/div&gt;(\(N_{sources}\) emitter; &lt;svg xmlns:xlink=&quot;http://www.w3.org/1999/xlink&quot; viewBox=&quot;0 -683 2318.6 848.6&quot; role=&quot;img&quot; height=&quot;1.92ex&quot; width=&quot;5.246ex&quot; xmlns=&quot;http://www.w3.org/2000/svg&quot; style=&quot;vertical-align: -0.375ex;&quot;&gt;&lt;defs&gt;&lt;path d=&quot;M234 637Q231 637 226 637Q201 637 196 638T191 649Q191 676 202 682Q204 683 299 683Q376 683 387 683T401 677Q612 181 616 168L670 381Q723 592 723 606Q723 633 659 637Q635 637 635 648Q635 650 637 660Q641 676 643 679T653 683Q656 683 684 682T767 680Q817 680 843 681T873 682Q888 682 888 672Q888 650 880 642Q878 637 858 637Q787 633 769 597L620 7Q618 0 599 0Q585 0 582 2Q579 5 453 305L326 604L261 344Q196 88 196 79Q201 46 268 46H278Q284 41 284 38T282 19Q278 6 272 0H259Q228 2 151 2Q123 2 100 2T63 2T46 1Q31 1 31 10Q31 14 34 26T39 40Q41 46 62 46Q130 49 150 85Q154 91 221 362L289 634Q287 635 234 637Z&quot; id=&quot;MJX-2-TEX-I-1D441&quot;&gt;&lt;/path&gt;&lt;path d=&quot;M230 637Q203 637 198 638T193 649Q193 676 204 682Q206 683 378 683Q550 682 564 680Q620 672 658 652T712 606T733 563T739 529Q739 484 710 445T643 385T576 351T538 338L545 333Q612 295 612 223Q612 212 607 162T602 80V71Q602 53 603 43T614 25T640 16Q668 16 686 38T712 85Q717 99 720 102T735 105Q755 105 755 93Q755 75 731 36Q693 -21 641 -21H632Q571 -21 531 4T487 82Q487 109 502 166T517 239Q517 290 474 313Q459 320 449 321T378 323H309L277 193Q244 61 244 59Q244 55 245 54T252 50T269 48T302 46H333Q339 38 339 37T336 19Q332 6 326 0H311Q275 2 180 2Q146 2 117 2T71 2T50 1Q33 1 33 10Q33 12 36 24Q41 43 46 45Q50 46 61 46H67Q94 46 127 49Q141 52 146 61Q149 65 218 339T287 628Q287 635 230 637ZM630 554Q630 586 609 608T523 636Q521 636 500 636T462 637H440Q393 637 386 627Q385 624 352 494T319 361Q319 360 388 360Q466 361 492 367Q556 377 592 426Q608 449 619 486T630 554Z&quot; id=&quot;MJX-2-TEX-I-1D445&quot;&gt;&lt;/path&gt;&lt;path d=&quot;M740 435Q740 320 676 213T511 42T304 -22Q207 -22 138 35T51 201Q50 209 50 244Q50 346 98 438T227 601Q351 704 476 704Q514 704 524 703Q621 689 680 617T740 435ZM637 476Q637 565 591 615T476 665Q396 665 322 605Q242 542 200 428T157 216Q157 126 200 73T314 19Q404 19 485 98T608 313Q637 408 637 476Z&quot; id=&quot;MJX-2-TEX-I-1D442&quot;&gt;&lt;/path&gt;&lt;path d=&quot;M43 1Q26 1 26 10Q26 12 29 24Q34 43 39 45Q42 46 54 46H60Q120 46 136 53Q137 53 138 54Q143 56 149 77T198 273Q210 318 216 344Q286 624 286 626Q284 630 284 631Q274 637 213 637H193Q184 643 189 662Q193 677 195 680T209 683H213Q285 681 359 681Q481 681 487 683H497Q504 676 504 672T501 655T494 639Q491 637 471 637Q440 637 407 634Q393 631 388 623Q381 609 337 432Q326 385 315 341Q245 65 245 59Q245 52 255 50T307 46H339Q345 38 345 37T342 19Q338 6 332 0H316Q279 2 179 2Q143 2 113 2T65 2T43 1Z&quot; id=&quot;MJX-2-TEX-I-1D43C&quot;&gt;&lt;/path&gt;&lt;/defs&gt;&lt;g transform=&quot;scale(1,-1)&quot; stroke-width=&quot;0&quot; fill=&quot;currentColor&quot; stroke=&quot;currentColor&quot;&gt;&lt;g data-mml-node=&quot;math&quot;&gt;&lt;g data-mml-node=&quot;msub&quot;&gt;&lt;g data-mml-node=&quot;mi&quot;&gt;&lt;use xlink:href=&quot;#MJX-2-TEX-I-1D441&quot; data-c=&quot;1D441&quot;&gt;&lt;/use&gt;&lt;/g&gt;&lt;g data-mjx-texclass=&quot;ORD&quot; transform=&quot;translate(836,-150) scale(0.707)&quot; data-mml-node=&quot;TeXAtom&quot;&gt;&lt;g data-mml-node=&quot;mi&quot;&gt;&lt;use xlink:href=&quot;#MJX-2-TEX-I-1D445&quot; data-c=&quot;1D445&quot;&gt;&lt;/use&gt;&lt;/g&gt;&lt;g transform=&quot;translate(759,0)&quot; data-mml-node=&quot;mi&quot;&gt;&lt;use xlink:href=&quot;#MJX-2-TEX-I-1D442&quot; data-c=&quot;1D442&quot;&gt;&lt;/use&gt;&lt;/g&gt;&lt;g transform=&quot;translate(1522,0)&quot; data-mml-node=&quot;mi&quot;&gt;&lt;use xlink:href=&quot;#MJX-2-TEX-I-1D43C&quot; data-c=&quot;1D43C&quot;&gt;&lt;/use&gt;&lt;/g&gt;&lt;/g&gt;&lt;/g&gt;&lt;/g&gt;&lt;/g&gt;&lt;/svg&gt; focus)" style="rounded=1;whiteSpace=wrap;html=1;absoluteArcSize=1;arcSize=14;strokeWidth=2;" vertex="1" parent="WIyWlLk6GJQsqaUBKTNV-1">
          <mxGeometry x="550" y="370" width="180" height="60" as="geometry" />
        </mxCell>
        <mxCell id="qE2XB7oEgwuM55grn9ra-16" value="GPU parallel" style="text;html=1;align=center;verticalAlign=middle;whiteSpace=wrap;rounded=0;" vertex="1" parent="WIyWlLk6GJQsqaUBKTNV-1">
          <mxGeometry x="595" y="40" width="90" height="30" as="geometry" />
        </mxCell>
        <mxCell id="qE2XB7oEgwuM55grn9ra-28" value="&lt;font style=&quot;font-size: 36px;&quot;&gt;...&lt;/font&gt;" style="text;html=1;align=center;verticalAlign=middle;whiteSpace=wrap;rounded=0;rotation=90;" vertex="1" parent="WIyWlLk6GJQsqaUBKTNV-1">
          <mxGeometry x="620" y="290" width="60" height="30" as="geometry" />
        </mxCell>
        <mxCell id="qE2XB7oEgwuM55grn9ra-32" style="edgeStyle=orthogonalEdgeStyle;rounded=0;orthogonalLoop=1;jettySize=auto;html=1;exitX=1;exitY=0.5;exitDx=0;exitDy=0;" edge="1" parent="WIyWlLk6GJQsqaUBKTNV-1" source="qE2XB7oEgwuM55grn9ra-29" target="qE2XB7oEgwuM55grn9ra-31">
          <mxGeometry relative="1" as="geometry" />
        </mxCell>
        <mxCell id="qE2XB7oEgwuM55grn9ra-29" value="&lt;div&gt;Print results:&lt;/div&gt;&lt;div&gt;\(k_{t,r}\)&lt;/div&gt;&lt;div&gt;for \(t=1,2,\dots,N_{sources}\) and&lt;/div&gt;&lt;div&gt;\(r=1,2,\dots,N_{ROI}\)&lt;/div&gt;" style="rounded=1;whiteSpace=wrap;html=1;absoluteArcSize=1;arcSize=14;strokeWidth=2;" vertex="1" parent="WIyWlLk6GJQsqaUBKTNV-1">
          <mxGeometry x="820" y="220" width="190" height="80" as="geometry" />
        </mxCell>
        <mxCell id="qE2XB7oEgwuM55grn9ra-31" value="End" style="strokeWidth=2;html=1;shape=mxgraph.flowchart.terminator;whiteSpace=wrap;" vertex="1" parent="WIyWlLk6GJQsqaUBKTNV-1">
          <mxGeometry x="1060" y="230" width="100" height="60" as="geometry" />
        </mxCell>
      </root>
    </mxGraphModel>
  </diagram>
</mxfile>
